<?xml version="1.0" encoding="utf-8"?>
<!-- Generator: Adobe Illustrator 16.0.4, SVG Export Plug-In . SVG Version: 6.00 Build 0)  -->
<!DOCTYPE svg PUBLIC "-//W3C//DTD SVG 1.1//EN" "http://www.w3.org/Graphics/SVG/1.1/DTD/svg11.dtd">
<svg version="1.1" id="Layer_1" xmlns="http://www.w3.org/2000/svg" xmlns:xlink="http://www.w3.org/1999/xlink" x="0px" y="0px"
	 width="560px" height="10px" viewBox="0 0 560 10.09" enable-background="new 0 0 560 10.09" xml:space="preserve">
<g>
	<path fill="#009B58" d="M0,0h560c0,1.346,0-0.673,0,0.504l-20.012,9.586l-20.013-9.586l-20.013,9.586l-20.012-9.586l-20.014,9.586
		l-20.012-9.586l-20.012,9.586l-20.012-9.586L379.89,10.09l-20.013-9.586l-19.844,9.586L320.02,0.504l-20.012,9.586L280,0.504
		l-20.012,9.586l-20.014-9.586l-20.012,9.586l-20.012-9.586l-20.014,9.586l-20.012-9.586l-20.012,9.586l-20.012-9.586l-19.844,9.586
		L80.045,0.504L60.033,10.09L40.021,0.504L20.008,10.09L0,0.504C0,0,0,0.168,0,0z"/>
</g>
</svg>
